# xmcd
#
# Track frame offsets:
#	182
#	16202
#	32812
#	49377
#	59077
#	72312
#	83285
#	96785
#	108062
#	125295
#	142352
#	162082
#	179735
#	192510
#
# Disc length: 2838 seconds
#
# Revision: 1
# Processed by: cddbd v1.5.2PL0 Copyright (c) Steve Scherf et al.
# Submitted via: audiograbber 1.83.01
#
DISCID=c60b140e
DTITLE=Various Artist - Routes West
DYEAR=1990
DGENRE=Country
TTITLE0=The Last Wild Sons - She's Alright
TTITLE1=The Last Wild Sons - Around Town
TTITLE2=Herald Nix - I Tried For You
TTITLE3=Herald Nix - I Got Your Photograph
TTITLE4=Tami Greer - Pieces of a Broken Dream
TTITLE5=Tami Greer - Evil Eye
TTITLE6=Nervous Fellas - Someday Soon
TTITLE7=Nervous Fellas - Hell Train
TTITLE8=Sandy Scofield - Dirty River
TTITLE9=Sandy Scofield - Without You
TTITLE10=The Stoaters - A Man Alone
TTITLE11=The Stoaters - 21 Years
TTITLE12=Roots Roundup - In This Time
TTITLE13=Roots Roundup - Sleepin'
EXTD=
EXTT0=
EXTT1=
EXTT2=
EXTT3=
EXTT4=
EXTT5=
EXTT6=
EXTT7=
EXTT8=
EXTT9=
EXTT10=
EXTT11=
EXTT12=
EXTT13=
PLAYORDER=
